<svg width="580" height="686" xmlns="http://www.w3.org/2000/svg" xml:space="preserve" class="gen-by-synoptic-designer" version="1.1">

 <g>
  <title>Layer 1</title>
  <polygon points="113,247,109,249,106,252,104,256,101,261,101,266,100,271,100,275,101,279,110,289,103,282,114,290,118,290,123,290,130,290,135,289,140,285,143,281,145,277,147,272,147,264,141,257,146,260,118,247,137,254" title="18" id="_x31_8"/>
  <polygon points="112,241,117,243,123,246,128,248,133,250,141,252,146,251,152,248,153,244,156,239,158,234,158,228,158,222,157,218,153,214,145,212,140,209,133,206,128,204,122,204,118,205,114,211,110,218,110,224,109,231,109,237" title="17" id="_x31_7"/>
  <polygon points="119,192,124,196,129,200,135,202,140,205,145,208,151,210,157,210,162,207,165,203,167,198,170,193,173,188,174,184,174,178,173,171,171,166,165,161,161,158,157,156,151,155,146,153,139,152,131,154,127,158,123,169,121,177,118,182,118,187,119,188" title="16" id="_x31_6"/>
  <polygon points="141,145,145,148,150,150,156,151,161,154,166,157,171,158,176,158,180,156,183,152,185,147,186,142,184,137,178,133,175,130,171,127,167,124,162,121,157,122,150,122,145,123,140,127,138,132,137,136,138,140" title="15" id="_x31_5"/>
  <polygon points="157,113,161,117,167,120,172,122,177,126,182,127,188,127,193,127,198,123,201,119,203,115,203,110,202,106,198,103,194,98,190,94,186,91,181,89,175,89,170,89,165,90,160,92,157,96,155,101,155,105,156,109" title="14" id="_x31_4"/>
  <polygon points="182,84,186,87,191,90,195,93,201,94,206,95,213,95,218,94,222,88,220,80,218,73,216,67,214,62,209,60,204,59,198,59,192,58,187,61,182,63,181,66,180,71,180,76,180,80" title="13" id="_x31_3"/>
  <polygon points="214,56,218,63,221,68,226,71,229,75,233,77,237,78,242,78,245,77,248,74,248,69,249,62,248,56,248,51,246,45,241,42,235,42,228,43,223,46,220,50,215,52" title="12" id="_x31_2"/>
  <polygon points="248,41,250,47,252,52,252,57,255,61,259,66,263,70,268,73,273,76,278,75,282,71,284,67,286,63,287,59,289,54,290,49,291,45,291,40,288,36,283,34,276,34,266,33,260,36,254,38,271,33" title="11" id="_x31_1"/>
  <polygon points="296,36,295,44,295,40,294,48,294,52,294,56,297,60,298,64,300,69,304,75,309,77,315,77,320,76,323,72,326,68,329,65,330,60,334,57,336,53,338,49,337,44,332,41,326,37,318,34,310,34,304,34,322,35,300,34" title="21" id="_x32_1"/>
  <polygon points="341,45,342,50,340,54,338,58,334,62,333,67,332,72,333,76,336,80,344,82,348,81,353,78,358,76,363,71,368,67,370,63,370,58,367,54,365,50,360,47,353,46,349,46,345,47" title="22" id="_x32_2"/>
  <polygon points="375,63,373,67,368,71,365,75,364,79,362,84,360,88,361,93,365,97,371,99,376,101,381,100,386,98,391,97,396,95,400,90,402,85,402,78,402,72,400,67,396,65,389,63,384,62,379,63" title="23" id="_x32_3"/>
  <polygon points="400,94,404,93,409,94,416,96,421,100,425,104,427,110,426,115,424,119,420,123,416,127,409,129,402,131,394,132,388,131,384,129,381,126,378,122,378,118,380,114,382,110,384,106,388,104,393,102,397,99,401,99" title="24" id="_x32_4"/>
  <polygon points="420,127,413,131,407,134,401,138,396,144,394,152,397,158,402,163,408,164,415,164,421,163,426,163,432,160,436,157,440,152,442,148,443,143,443,138,440,134,435,132,430,129,424,127" title="25" id="_x32_5"/>
  <polygon points="443,161,437,162,431,165,424,167,419,168,414,170,409,175,405,180,404,191,407,200,406,195,411,205,413,210,417,213,423,216,431,216,439,214,447,212,454,208,458,203,459,196,459,190,457,185,455,176,454,169,450,164,447,161" title="26" id="_x32_6"/>
  <polygon points="454,212,443,215,436,218,427,220,421,223,420,230,420,238,422,245,424,255,432,258,439,259,444,258,451,257,456,255,462,252,466,247,465,242,465,235,465,227,464,220,460,214" title="27" id="_x32_7"/>
  <polygon points="462,257,456,261,450,263,443,263,435,263,439,264,431,267,430,274,432,281,434,288,437,292,444,297,454,298,462,297,470,295,474,290,475,284,473,279,473,272,473,266,470,262,466,259" title="28" id="_x32_8"/>
  <polygon points="124,408,118,410,114,414,110,419,109,425,109,430,112,434,112,439,112,444,115,449,119,453,122,454,126,454,134,454,138,454,142,452,147,451,152,448,155,444,157,440,155,435,154,429,153,422,151,417,147,413,143,409,138,408,133,408,129,408" title="48" id="_x34_8"/>
  <polygon points="155,455,150,455,145,456,140,459,135,459,130,458,125,459,121,464,118,471,118,477,121,483,125,488,125,493,129,499,134,503,140,504,146,502,151,500,157,498,163,498,168,495,171,491,172,485,169,481,167,477,166,471,165,466,162,462,159,458" title="47" id="_x34_7"/>
  <polygon points="170,502,164,502,158,503,152,505,147,506,142,508,136,511,135,517,134,524,134,531,134,537,138,543,143,551,149,555,155,556,161,555,166,551,172,551,177,549,182,546,186,542,187,536,185,528,184,520,182,513,179,508,175,505" title="46" id="_x34_6"/>
  <polygon points="183,552,177,554,171,557,166,557,159,561,153,565,152,571,153,576,157,580,162,584,167,586,172,587,177,587,182,584,187,580,192,576,196,572,198,566,196,561,192,556,188,552" title="45" id="_x34_5"/>
  <polygon points="191,585,187,586,182,589,176,592,171,595,170,601,171,606,176,610,180,613,186,617,191,616,196,615,202,611,205,605,207,600,208,595,207,589,206,584,202,584,196,584" title="44" id="_x34_4"/>
  <polygon points="217,607,211,609,206,612,200,615,195,620,195,625,197,630,202,635,207,637,213,638,219,638,224,635,225,629,226,623,227,618,227,613,226,608,222,607" title="43" id="_x34_3"/>
  <polygon points="231,627,229,632,224,639,226,643,230,645,233,647,237,649,242,649,247,649,253,647,255,643,254,639,254,634,255,630,254,625,251,619,245,618,240,619,236,621,235,625" title="42" id="_x34_2"/>
  <polygon points="259,637,259,642,259,648,262,652,267,653,272,653,277,653,282,651,284,646,283,641,281,637,281,633,279,629,276,625,271,622,266,624,264,628,261,633" title="41" id="_x34_1"/>
  <polygon points="289,636,287,641,288,646,287,651,291,653,297,653,301,653,307,652,312,650,313,646,311,641,311,637,308,632,306,628,302,624,297,622,293,626,290,630" title="31" id="_x33_1"/>
  <polygon points="316,633,316,641,316,638,317,646,317,651,322,652,327,653,332,652,338,650,343,647,346,644,345,639,343,634,339,631,335,628,333,625,330,621,325,620,321,621,317,624,317,629" title="32" id="_x33_2"/>
  <polygon points="344,622,344,630,344,626,348,635,350,639,354,641,359,641,365,642,370,640,372,636,374,632,376,627,376,623,372,619,368,616,364,613,359,610,354,609,349,609,345,611,344,616" title="33" id="_x33_3"/>
  <polygon points="366,605,368,611,373,615,377,619,381,621,385,621,391,619,396,618,400,614,401,610,401,606,401,602,400,597,395,594,391,592,386,589,381,589,377,589,372,589,368,590,364,594,364,599" title="34" id="_x33_4"/>
  <polygon points="383,585,388,585,391,588,396,589,400,593,405,593,410,592,415,588,419,583,421,577,420,572,418,568,414,563,409,561,404,559,399,557,394,556,389,558,384,559,380,564,376,569,376,573,376,578,381,581,377,582" title="35" id="_x33_5"/>
  <polygon points="388,538,388,543,390,549,394,551,399,552,404,554,409,556,414,558,419,562,424,562,429,560,432,555,436,551,438,546,440,541,441,535,441,529,441,523,440,517,436,512,431,510,424,508,419,507,414,507,409,508,405,509,400,511,397,516,393,521,391,526,389,532" title="36" id="_x33_6"/>
  <polygon points="410,500,414,502,419,502,425,503,429,505,437,508,434,505,442,509,447,507,449,502,452,497,455,493,457,489,459,484,459,479,458,475,456,470,453,466,448,464,443,463,438,462,434,460,429,459,423,461,419,465,415,469,412,474,410,480,407,485,406,490,406,495,406,500" title="37" id="_x33_7"/>
  <polygon points="429,454,434,456,439,458,444,459,449,459,453,462,458,462,463,459,466,453,467,448,467,442,470,436,471,431,471,426,468,422,463,419,458,417,452,416,447,415,441,415,435,416,430,420,427,425,426,431,425,436,423,441,422,447,424,451,425,455" title="38" id="_x33_8"/>
 </g>
</svg>